<svg xmlns="http://www.w3.org/2000/svg" viewBox="0 0 300 500" width="300" height="500">
  <defs>
    <linearGradient id="bg" x1="0" y1="0" x2="0" y2="1"><stop offset="0%" stop-color="#FFF8E1"/><stop offset="100%" stop-color="#F5E6B8"/></linearGradient>
    <linearGradient id="sky" x1="0" y1="0" x2="0" y2="1"><stop offset="0%" stop-color="#87CEEB"/><stop offset="60%" stop-color="#E0F0FF"/><stop offset="100%" stop-color="#F5E6B8"/></linearGradient>
  </defs>
  <rect width="300" height="500" rx="16" fill="url(#bg)"/>
  <rect x="12" y="12" width="276" height="476" rx="12" fill="none" stroke="#C4A44E" stroke-width="2.5"/>
  <rect x="18" y="50" width="264" height="380" rx="8" fill="url(#sky)"/>
  <!-- Sun -->
  <circle cx="240" cy="90" r="30" fill="#FFD700" opacity="0.9"/>
  <g stroke="#FFD700" stroke-width="2" opacity="0.6">
    <line x1="240" y1="52" x2="240" y2="44"/><line x1="268" y1="62" x2="274" y2="56"/>
    <line x1="278" y1="90" x2="286" y2="90"/><line x1="268" y1="118" x2="274" y2="124"/>
  </g>
  <!-- Mountains -->
  <polygon points="18,340 90,240 162,340" fill="#8B9DC3" opacity="0.5"/>
  <polygon points="100,340 180,220 260,340" fill="#7B8FB3" opacity="0.6"/>
  <!-- Cliff edge -->
  <path d="M18,340 Q80,320 120,350 Q160,310 200,340 Q240,320 282,340 L282,430 L18,430Z" fill="#8B7355"/>
  <path d="M18,340 Q80,320 120,350 Q160,310 200,340 Q240,320 282,340" fill="none" stroke="#6B5335" stroke-width="1.5"/>
  <!-- Figure body -->
  <circle cx="155" cy="160" r="22" fill="#FFDAB9"/>
  <!-- Hair -->
  <path d="M133,155 Q135,130 155,125 Q175,130 177,155" fill="#DAA520"/>
  <!-- Wreath on head -->
  <ellipse cx="155" cy="132" rx="18" ry="8" fill="none" stroke="#228B22" stroke-width="3"/>
  <circle cx="143" cy="130" r="3" fill="#FF4444"/><circle cx="155" cy="127" r="3" fill="#FF6B6B"/>
  <circle cx="167" cy="130" r="3" fill="#FF4444"/>
  <!-- Face -->
  <circle cx="148" cy="158" r="2" fill="#333"/><circle cx="162" cy="158" r="2" fill="#333"/>
  <path d="M149,167 Q155,172 161,167" fill="none" stroke="#333" stroke-width="1.5"/>
  <!-- Tunic -->
  <path d="M135,180 L130,280 L180,280 L175,180Z" fill="#E8352D"/>
  <path d="M130,200 L110,260 L135,255Z" fill="#E8352D"/>
  <path d="M175,200 L195,260 L170,255Z" fill="#E8352D"/>
  <!-- Pattern on tunic -->
  <circle cx="155" cy="220" r="12" fill="none" stroke="#FFD700" stroke-width="1.5"/>
  <path d="M155,208 L155,232 M143,220 L167,220" stroke="#FFD700" stroke-width="1.5"/>
  <!-- Legs -->
  <line x1="142" y1="280" x2="138" y2="330" stroke="#FFDAB9" stroke-width="8" stroke-linecap="round"/>
  <line x1="168" y1="280" x2="175" y2="325" stroke="#FFDAB9" stroke-width="8" stroke-linecap="round"/>
  <!-- Boots -->
  <ellipse cx="136" cy="335" rx="12" ry="6" fill="#8B4513"/>
  <ellipse cx="178" cy="328" rx="12" ry="6" fill="#8B4513"/>
  <!-- Bundle on stick -->
  <line x1="170" y1="175" x2="200" y2="130" stroke="#8B4513" stroke-width="4" stroke-linecap="round"/>
  <circle cx="205" cy="120" r="16" fill="#E8352D" opacity="0.8"/>
  <circle cx="205" cy="120" r="16" fill="none" stroke="#C4A44E" stroke-width="1"/>
  <!-- White rose -->
  <circle cx="125" cy="210" r="6" fill="white" stroke="#228B22" stroke-width="1"/>
  <circle cx="125" cy="210" r="2.5" fill="#FFE4B5"/>
  <!-- Small dog -->
  <ellipse cx="195" cy="310" rx="16" ry="10" fill="white"/>
  <circle cx="207" cy="302" r="7" fill="white"/>
  <circle cx="209" cy="300" r="2" fill="#333"/>
  <path d="M202,296 L198,290" stroke="#333" stroke-width="1.5"/>
  <path d="M212,296 L216,290" stroke="#333" stroke-width="1.5"/>
  <path d="M180" y1="315" x2="175" y2="325" stroke="white" stroke-width="2"/>
  <!-- Number -->
  <text x="150" y="38" text-anchor="middle" font-family="serif" font-size="18" font-weight="bold" fill="#C4A44E">0</text>
  <!-- Title -->
  <text x="150" y="458" text-anchor="middle" font-family="serif" font-size="20" font-weight="bold" fill="#5B4A2A">THE FOOL</text>
  <text x="150" y="478" text-anchor="middle" font-family="serif" font-size="14" fill="#8B7355">愚者</text>
</svg>