<svg xmlns="http://www.w3.org/2000/svg" viewBox="0 0 300 500" width="300" height="500">
  <defs>
    <linearGradient id="bg" x1="0" y1="0" x2="0" y2="1">
      <stop offset="0%" stop-color="#FFF8E1"/>
      <stop offset="100%" stop-color="#F5E6B8"/>
    </linearGradient>
    <linearGradient id="scene" x1="0" y1="0" x2="0" y2="1">
      <stop offset="0%" stop-color="#D4E6F1"/>
      <stop offset="100%" stop-color="#AED6F1"/>
    </linearGradient>
  </defs>

  <!-- 暖黄色背景（与大阿卡纳一致） -->
  <rect width="300" height="500" rx="16" fill="url(#bg)"/>

  
    <!-- 外边框（与大阿卡纳统一金色） -->
    <rect x="12" y="12" width="276" height="476" rx="12" fill="none" stroke="#C4A44E" stroke-width="2.5"/>
    <!-- 内边框角装饰 -->
    <circle cx="24" cy="24" r="2.5" fill="#C4A44E" opacity="0.6"/>
    <circle cx="276" cy="24" r="2.5" fill="#C4A44E" opacity="0.6"/>
    <circle cx="24" cy="476" r="2.5" fill="#C4A44E" opacity="0.6"/>
    <circle cx="276" cy="476" r="2.5" fill="#C4A44E" opacity="0.6"/>

  <!-- 场景区域 -->
  <rect x="18" y="50" width="264" height="340" rx="8" fill="url(#scene)" opacity="0.5"/>

  <!-- 顶部：编号 + 花色元素名 -->
  <text x="30" y="42" font-family="Georgia, serif" font-size="22" font-weight="bold" fill="#2E7D9B">A</text>
  <text x="270" y="42" font-family="sans-serif" font-size="14" fill="#5DADE2" text-anchor="end" opacity="0.7">水</text>

  <!-- 中央主体内容 -->
  
        <g transform="translate(150,210)">
          <path d="M-26.6,-17.099999999999998 Q-30.400000000000002,20.9 -5.7,30.400000000000002 L5.7,30.400000000000002 Q30.400000000000002,20.9 26.6,-17.099999999999998 Z" fill="#2E7D9B"/>
          <ellipse cx="0" cy="-17.099999999999998" rx="26.6" ry="8.549999999999999" fill="#5DADE2" opacity="0.8"/>
          <rect x="-4.75" y="26.6" width="9.5" height="11.4" fill="#2E7D9B"/>
          <rect x="-16.150000000000002" y="36.1" width="32.300000000000004" height="5.7" rx="2.85" fill="#2E7D9B"/>
          <ellipse cx="0" cy="-4.75" rx="11.4" ry="5.7" fill="#5DADE2" opacity="0.3"/>
        </g>

  <!-- 底部：牌名 -->
  <text x="150" y="408" font-family="'PingFang SC', 'Microsoft YaHei', sans-serif" font-size="22" font-weight="bold" fill="#2E7D9B" text-anchor="middle">圣杯王牌</text>
  <text x="150" y="430" font-family="Georgia, serif" font-size="13" fill="#1A5276" text-anchor="middle" opacity="0.7">Ace of Cups</text>

  
        <path d="M100,440 Q125,425 150,440 Q175,425 200,440" fill="none" stroke="#2E7D9B" stroke-width="1.5" opacity="0.25"/>
        <path d="M110,455 Q135,440 160,455 Q185,440 210,455" fill="none" stroke="#5DADE2" stroke-width="1" opacity="0.15"/>
</svg>